HIERARCHY
ROOT Hips
{
  OFFSET 5.78187 94.3565 -221.32
  CHANNELS 6 Xposition Yposition Zposition Zrotation Xrotation Yrotation
  JOINT ToSpine
  {
    OFFSET -2.69724 7.43032 -0.144315
    CHANNELS 3 Zrotation Xrotation Yrotation
    JOINT Spine
    {
      OFFSET -0.0310711 10.7595 1.96963
      CHANNELS 3 Zrotation Xrotation Yrotation
      JOINT Spine1
      {
        OFFSET 13.1342 3.43533 0.764692
        CHANNELS 3 Zrotation Xrotation Yrotation
        JOINT Neck
        {
          OFFSET 29.8703 7.82586 -0.130764
          CHANNELS 3 Zrotation Xrotation Yrotation
          JOINT Head
          {
            OFFSET 9.52751 0.295786 -0.907742
            CHANNELS 3 Zrotation Xrotation Yrotation
            End Site
            {
              OFFSET 16.4037 0.713936 2.7358
            }
          }
        }
        JOINT LeftShoulder
        {
          OFFSET 27.5574 4.95586 2.47156
          CHANNELS 3 Zrotation Xrotation Yrotation
          JOINT LeftArm
          {
            OFFSET 1.20734 -0.998971 20.1238
            CHANNELS 3 Zrotation Xrotation Yrotation
            JOINT LeftForeArm
            {
              OFFSET 26.8049 -0.0536703 -0.155908
              CHANNELS 3 Zrotation Xrotation Yrotation
              JOINT LeftHand
              {
                OFFSET 26.6817 0 0.320147
                CHANNELS 3 Zrotation Xrotation Yrotation
                End Site
                {
                  OFFSET 18.6119 0 0.382219
                }
              }
            }
          }
        }
        JOINT RightShoulder
        {
          OFFSET 27.5927 4.71444 -2.65209
          CHANNELS 3 Zrotation Xrotation Yrotation
          JOINT RightArm
          {
            OFFSET 2.83739 -1.17114 -18.7564
            CHANNELS 3 Zrotation Xrotation Yrotation
            JOINT RightForeArm
            {
              OFFSET 28.839 -0.0548439 1.22491
              CHANNELS 3 Zrotation Xrotation Yrotation
              JOINT RightHand
              {
                OFFSET 26.5114 0 -0.101894
                CHANNELS 3 Zrotation Xrotation Yrotation
                End Site
                {
                  OFFSET 18.2168 0 0
                }
              }
            }
          }
        }
      }
    }
  }
  JOINT LeftUpLeg
  {
    OFFSET -4.76168 -1.9167 -10.2353
    CHANNELS 3 Zrotation Xrotation Yrotation
    JOINT LeftLeg
    {
      OFFSET 2.55951 -42.0585 -8.02213
      CHANNELS 3 Zrotation Xrotation Yrotation
      JOINT LeftFoot
      {
        OFFSET 3.16357 -42.5282 -3.95426
        CHANNELS 3 Zrotation Xrotation Yrotation
        JOINT LeftToeBase
        {
          OFFSET 0.346054 -6.02161 12.8035
          CHANNELS 3 Zrotation Xrotation Yrotation
          End Site
          {
            OFFSET 0.134235 -1.35082 5.13018
          }
        }
      }
    }
  }
  JOINT RightUpLeg
  {
    OFFSET -4.94151 -1.41743 10.6446
    CHANNELS 3 Zrotation Xrotation Yrotation
    JOINT RightLeg
    {
      OFFSET -2.56294 -42.0364 -7.94377
      CHANNELS 3 Zrotation Xrotation Yrotation
      JOINT RightFoot
      {
        OFFSET -3.0952 -42.555 -4.02241
        CHANNELS 3 Zrotation Xrotation Yrotation
        JOINT RightToeBase
        {
          OFFSET -0.0828122 -6.13587 12.8035
          CHANNELS 3 Zrotation Xrotation Yrotation
          End Site
          {
            OFFSET -0.131328 -1.35082 5.13018
          }
        }
      }
    }
  }
}
MOTION
Frames:	8
Frame Time:	0.0333333
12.0687 93.7182 -122.477 11.0635 -44.3739 -81.7189 -70.1915 0 88.8779 135.13 76.5535 -47.7602 -11.1134 32.7064 -1.66191 -165.626 33.0852 171.63 -149.928 72.3063 -173.94 0.788251 -12.6441 -20.0561 -59.8344 64.5003 -59.0498 13.8747 3.86112 -74.1824 0.420957 0.000575565 0.35866 -1.0566 8.70539 25.8596 -108.712 -29.8352 96.251 20.7005 2.95071 97.5078 0.58676 0.000330692 0.0646652 1.47756 4.42923 102.268 -9.29873 65.1835 -12.4909 -4.74067 -2.0063 0.276398 10.2767 -20.4685 19.2102 -62.4247 2.19531 81.1296 0.0674931 26.7849 29.9785 5.70131 25.2053 -3.84641 2.21436 -8.73948 -9.02577 
12.157 93.3899 -113.565 11.4589 -45.4536 -79.8002 -70.1915 0 88.8779 132.737 76.5822 -45.2081 -9.63731 31.9992 -1.22725 -167.373 33.088 174.38 -157.043 72.8785 -167.898 0.830352 -11.785 -23.3535 -64.2244 62.8063 -57.3761 15.3972 3.69483 -76.2151 0.420957 0.000575565 0.35866 -1.30207 8.41222 29.435 -101.884 -30.4561 92.1264 19.9947 2.53691 96.6126 0.58676 0.000330692 0.0646652 -1.3111 4.99251 104.933 -8.58084 62.3033 -17.8127 -7.16146 -3.07599 0.417976 15.1785 -26.1286 23.9494 -61.5124 4.44733 86.4419 1.9245 36.6933 7.3017 -0.271712 19.2348 -1.17935 0.314481 -4.5959 -0.317763 
12.1201 92.3927 -103.807 13.289 -47.6934 -77.001 -70.1915 0 88.8779 128.449 75.7902 -42.1369 -7.77769 30.186 -0.297971 -164.548 32.1024 173.602 -160.279 72.0151 -162.272 0.728712 -12.1618 -26.19 -68.4066 60.5021 -58.5431 15.8128 3.13618 -78.9705 0.420957 0.000575565 0.35866 -1.96115 8.31016 37.8017 -93.2223 -28.4526 88.0167 19.5201 0.659183 91.7228 0.58676 0.000330692 0.0646652 -7.92012 4.46463 105.386 -9.02084 63.7643 -16.3689 -7.04275 -3.72455 0.345532 14.3143 -25.7366 20.3291 -57.8519 6.769 86.9912 3.1737 54.5453 -0.666277 -2.8823 16.4633 -0.330191 1.55563 -3.7566 -8.8993 
12.4471 91.1601 -94.7084 13.325 -49.6647 -77.3736 -70.1915 0 88.8779 122.799 74.638 -38.7377 -5.76133 28.3509 -0.105296 -160.464 30.0234 172.452 -161.555 70.0325 -157.347 0.655196 -12.1992 -29.8392 -76.0305 56.8412 -57.9204 17.1119 1.55738 -83.5459 0.420957 0.000575565 0.35866 -2.24496 7.65593 43.5994 -82.8974 -29.037 86.6718 18.0214 -2.6928 81.677 0.58676 0.000330692 0.0646652 -15.963 2.74811 103.718 -9.39531 65.0069 -14.1769 -3.19399 -11.1352 -0.91925 8.68917 -18.2096 13.0816 -48.0495 5.57832 85.5326 9.78765 77.42 -13.8442 -5.64539 14.7055 0.440072 1.39055 -3.14518 -7.69641 
13.0207 89.3192 -86.4696 13.0666 -50.5727 -79.8214 -70.1915 0 88.8779 116.79 73.1495 -36.9659 -4.37612 25.8712 0.910642 -159.838 27.6496 172.606 -161.913 67.7774 -154.773 0.720539 -11.6901 -32.2173 -83.0308 52.8049 -61.2971 20.3903 0.0793741 -88.7193 0.420957 0.000575565 0.35866 -2.32819 7.4368 45.5575 -73.2173 -32.8258 86.4471 15.4098 -5.67006 70.0888 0.58676 0.000330692 0.0646652 -23.0048 -0.302803 102.663 -9.49258 65.3005 -13.8905 -0.620507 -17.4008 -1.50706 8.09135 -17.4096 15.2897 -33.027 1.74178 85.8107 151.157 79.7222 -162.288 -11.3302 10.5981 1.8676 0.689317 -7.60266 2.68699 
13.464 87.6459 -78.8177 13.0693 -49.398 -80.5584 -70.1915 0 88.8779 112.448 71.8206 -33.1823 -3.2409 23.9674 0.369217 -162.815 26.2731 173.273 -163.257 66.3998 -154.576 0.505102 -12.6073 -32.9925 -83.7949 48.7544 -72.4753 22.1805 -1.32672 -93.8815 0.420957 0.000575565 0.35866 -2.59905 7.86909 47.1652 -68.4359 -36.679 80.0177 9.59532 -4.71387 64.1479 0.58676 0.000330692 0.0646652 -28.4573 -2.82643 100.627 -8.58771 63.5822 -13.8513 0.733123 -21.1893 -1.76551 10.2434 -20.404 18.2402 -14.2801 -0.106611 86.6706 173.531 68.6617 174.589 -17.0593 8.75575 2.95873 1.96254 -16.6645 2.3524 
13.8077 86.7072 -69.0299 13.3191 -49.0387 -78.1539 -70.1915 0 88.8779 112.547 70.0129 -30.517 -3.35701 21.9194 0.893418 -163.123 24.7392 173.112 -159.493 64.8812 -157.908 0.654681 -12.2186 -29.6664 -82.8054 48.1032 -83.6259 24.0506 -4.03714 -97.6485 0.420957 0.000575565 0.35866 -2.55527 7.29513 49.1285 -66.0877 -39.2044 69.086 4.64334 -2.24117 64.6019 0.58676 0.000330692 0.0646652 -37.3306 -2.50499 96.4783 -6.84016 58.6284 -14.8076 0.113652 -22.9675 -1.92342 11.7092 -22.4548 17.8006 -0.599318 -0.715731 85.1686 168.455 69.2383 177.581 -15.9371 3.85591 2.43724 2.50421 -19.3494 4.2538 
14.2068 87.1322 -58.0595 13.9419 -49.2011 -74.479 -70.1915 0 88.8779 113.691 67.1597 -29.3869 -5.06527 18.0913 4.30006 -162.747 22.2101 173.258 -154.808 62.196 -162.911 0.863746 -11.344 -25.7912 -84.306 50.0372 -84.912 23.7941 -6.76611 -104.23 0.420957 0.000575565 0.35866 -2.43062 7.03121 48.7238 -62.6844 -41.9893 60.9006 2.11989 -0.96628 66.377 0.58676 0.000330692 0.0646652 -47.9821 0.021799 92.7509 -4.95415 50.4383 -14.6959 -2.57893 -17.2787 -1.4556 13.005 -24.6436 13.4038 6.3933 -1.81984 82.8605 170.908 80.6717 -179.969 -13.4373 0.992293 1.96465 2.42735 -22.2843 -5.09432 
